<?xml version="1.0" encoding="UTF-8"?>
<svg version="1.1" xmlns="http://www.w3.org/2000/svg" width="225" height="225">
<path d="M0 0 C74.25 0 148.5 0 225 0 C225 74.25 225 148.5 225 225 C150.75 225 76.5 225 0 225 C0 150.75 0 76.5 0 0 Z " fill="#FEFEFE" transform="translate(0,0)"/>
<path d="M0 0 C1.64911377 0.40943848 1.64911377 0.40943848 3.33154297 0.82714844 C99.43778041 24.82387761 99.43778041 24.82387761 120 54 C122.8233008 58.94564415 122.63928275 63.39564924 121.3125 68.80078125 C116.49728376 84.26966342 107.12424556 97.54655668 95.40625 108.62890625 C93.82307989 110.10926901 93.82307989 110.10926901 92.0625 112.5 C89.68953539 115.37632074 87.06994073 117.65904675 84.234375 120.0703125 C82.75799309 121.34536961 81.30885497 122.65274809 79.890625 123.9921875 C65.26939249 137.75631327 43.11344678 155.82192496 22.5625 158.4375 C19.57669191 157.92772789 18.85040282 157.33172147 17 155 C16.24948291 140.23983055 29.00656876 123.40120127 38.33276367 113.04589844 C41.48139947 109.62349081 44.70559156 106.28248298 48 103 C46.84371094 103.18175781 45.68742187 103.36351562 44.49609375 103.55078125 C-28.75239637 114.7235177 -28.75239637 114.7235177 -44.61328125 103.3515625 C-46 102 -46 102 -46.9375 99.5625 C-45.07395809 94.46881877 -39.93822185 91.26925463 -35.1796875 88.98046875 C-33.75237325 88.36492584 -32.31682466 87.76824151 -30.875 87.1875 C-29.67411743 86.69382935 -29.67411743 86.69382935 -28.44897461 86.19018555 C-11.25327792 79.34495392 6.72110303 74.36076298 24.703125 70.0625 C30.55420484 68.6507113 36.27911179 66.86868429 42 65 C37.03253143 62.75873689 32.04096818 60.58504246 27.015625 58.4765625 C-63.10315981 20.58251668 -63.10315981 20.58251668 -77 -3 C-77.125 -5.25 -77.125 -5.25 -76 -7 C-54.57331893 -16.19231071 -21.49606026 -5.45228169 0 0 Z " fill="#16CEC6" transform="translate(90,38)"/>
</svg>
